<svg width="235" height="27" viewBox="0 0 235 27" fill="none" xmlns="http://www.w3.org/2000/svg">
<path d="M8.32401 21.336C7.14801 21.336 6.07468 21.1587 5.10401 20.804C4.15201 20.4493 3.33068 19.88 2.64001 19.096C1.96801 18.312 1.43601 17.2853 1.04401 16.016C0.670675 14.7467 0.484009 13.1973 0.484009 11.368C0.484009 9.53868 0.670675 7.98001 1.04401 6.69201C1.43601 5.38535 1.96801 4.32135 2.64001 3.50002C3.33068 2.67868 4.15201 2.08135 5.10401 1.70802C6.07468 1.31601 7.14801 1.12001 8.32401 1.12001C10.0787 1.12001 11.46 1.50268 12.468 2.26801C13.4947 3.01468 14.3347 4.15335 14.988 5.68401L11.516 7.47602C11.404 7.06535 11.2733 6.68268 11.124 6.32801C10.9933 5.97335 10.8067 5.67468 10.564 5.43201C10.3213 5.18935 10.0133 5.00268 9.64001 4.87201C9.28534 4.72268 8.84668 4.64801 8.32401 4.64801C7.20401 4.64801 6.32668 4.98401 5.69201 5.65601C5.05734 6.32801 4.74001 7.33601 4.74001 8.68001V13.776C4.74001 15.12 5.05734 16.128 5.69201 16.8C6.32668 17.472 7.20401 17.808 8.32401 17.808C8.84668 17.808 9.29468 17.7333 9.66801 17.584C10.06 17.416 10.3867 17.2013 10.648 16.94C10.9093 16.66 11.124 16.3427 11.292 15.988C11.46 15.6147 11.6093 15.2133 11.74 14.784L15.044 16.688C14.708 17.416 14.3347 18.0693 13.924 18.648C13.5133 19.2267 13.0373 19.7213 12.496 20.132C11.9733 20.524 11.3667 20.8227 10.676 21.028C9.98534 21.2333 9.20134 21.336 8.32401 21.336Z" fill="black"/>
<path d="M22.8523 21.336C20.799 21.336 19.2403 20.7107 18.1763 19.46C17.131 18.2093 16.6083 16.2773 16.6083 13.664C16.6083 11.0507 17.131 9.11868 18.1763 7.86802C19.2403 6.59868 20.799 5.96402 22.8523 5.96402C24.9056 5.96402 26.455 6.59868 27.5003 7.86802C28.5643 9.11868 29.0963 11.0507 29.0963 13.664C29.0963 16.2773 28.5643 18.2093 27.5003 19.46C26.455 20.7107 24.9056 21.336 22.8523 21.336ZM22.8523 18.228C24.2896 18.228 25.0083 17.388 25.0083 15.708V11.592C25.0083 9.91201 24.2896 9.07201 22.8523 9.07201C21.415 9.07201 20.6963 9.91201 20.6963 11.592V15.708C20.6963 17.388 21.415 18.228 22.8523 18.228Z" fill="black"/>
<path d="M39.731 18.564H39.283C39.1897 18.956 39.0404 19.32 38.835 19.656C38.6297 19.992 38.3777 20.2907 38.079 20.552C37.7804 20.7947 37.4444 20.9813 37.071 21.112C36.6977 21.2613 36.315 21.336 35.923 21.336C34.2057 21.336 32.955 20.7013 32.171 19.432C31.387 18.144 30.995 16.2213 30.995 13.664C30.995 11.1067 31.387 9.18401 32.171 7.89601C32.9737 6.60801 34.2244 5.96402 35.923 5.96402C36.315 5.96402 36.6977 6.03868 37.071 6.18801C37.4444 6.31868 37.7804 6.51468 38.079 6.77601C38.3777 7.01868 38.6297 7.30801 38.835 7.64401C39.0404 7.98001 39.1897 8.34402 39.283 8.73602H39.731V0.280015H43.651V21H39.731V18.564ZM37.491 18.144C38.2004 18.144 38.751 17.9853 39.143 17.668C39.535 17.332 39.731 16.8373 39.731 16.184V11.116C39.731 10.4627 39.535 9.97735 39.143 9.66002C38.751 9.32402 38.2004 9.15602 37.491 9.15602C36.763 9.15602 36.175 9.38935 35.727 9.85601C35.2977 10.304 35.083 10.948 35.083 11.788V15.512C35.083 16.352 35.2977 17.0053 35.727 17.472C36.175 17.92 36.763 18.144 37.491 18.144Z" fill="black"/>
<path d="M52.8576 21.336C50.8416 21.336 49.2269 20.7013 48.0136 19.432C46.8189 18.144 46.2216 16.2213 46.2216 13.664C46.2216 11.0507 46.7442 9.11868 47.7896 7.86802C48.8536 6.59868 50.4122 5.96402 52.4656 5.96402C54.5189 5.96402 56.0682 6.59868 57.1136 7.86802C58.1776 9.11868 58.7096 11.0507 58.7096 13.664V14.616H50.3096V15.54C50.3096 16.3613 50.5616 17.024 51.0656 17.528C51.5696 18.0133 52.2602 18.256 53.1376 18.256C53.8656 18.256 54.4816 18.0973 54.9856 17.78C55.5082 17.444 55.9842 16.9867 56.4136 16.408L58.4016 18.732C57.8042 19.5347 57.0389 20.1693 56.1056 20.636C55.1909 21.1027 54.1082 21.336 52.8576 21.336ZM52.4656 8.90401C51.0282 8.90401 50.3096 9.74401 50.3096 11.424V12.32H54.6216V11.424C54.6216 9.74401 53.9029 8.90401 52.4656 8.90401Z" fill="black"/>
<path d="M73.1219 21.336C70.1912 21.336 67.8952 20.3093 66.2339 18.256L68.8099 15.68C69.9299 17.1173 71.3952 17.836 73.2059 17.836C75.0726 17.836 76.0059 17.0147 76.0059 15.372C76.0059 14.7 75.8379 14.1773 75.5019 13.804C75.1659 13.4307 74.6432 13.1693 73.9339 13.02L72.1419 12.684C70.3312 12.348 68.9966 11.7227 68.1379 10.808C67.2979 9.87468 66.8779 8.58668 66.8779 6.94401C66.8779 5.04001 67.4379 3.59335 68.5579 2.60402C69.6779 1.61468 71.3206 1.12001 73.4859 1.12001C76.2486 1.12001 78.3486 2.01601 79.7859 3.80801L77.2099 6.38402C76.7246 5.78668 76.1739 5.34801 75.5579 5.06802C74.9606 4.76935 74.2512 4.62001 73.4299 4.62001C72.5339 4.62001 71.8806 4.78801 71.4699 5.12401C71.0779 5.46001 70.8819 6.00135 70.8819 6.74802C70.8819 7.40135 71.0312 7.89601 71.3299 8.23201C71.6472 8.56801 72.1512 8.81068 72.8419 8.96001L74.6339 9.32401C75.5859 9.52935 76.3979 9.78135 77.0699 10.08C77.7606 10.36 78.3206 10.724 78.7499 11.172C79.1979 11.62 79.5152 12.152 79.7019 12.768C79.9072 13.384 80.0099 14.1027 80.0099 14.924C80.0099 17.0147 79.4219 18.6107 78.2459 19.712C77.0699 20.7947 75.3619 21.336 73.1219 21.336Z" fill="black"/>
<path d="M82.7725 21V6.30001H86.6925V8.79202H87.1405C87.2525 8.40002 87.4018 8.03601 87.5885 7.70001C87.7752 7.36401 88.0085 7.06535 88.2885 6.80401C88.5685 6.54268 88.8952 6.33735 89.2685 6.18801C89.6418 6.03868 90.0712 5.96402 90.5565 5.96402C91.8818 5.96402 92.8898 6.41202 93.5805 7.30801C94.2898 8.18535 94.6445 9.41735 94.6445 11.004V21H90.7245V11.76C90.7245 10.024 90.1178 9.15602 88.9045 9.15602C88.3072 9.15602 87.7845 9.34268 87.3365 9.71601C86.9072 10.0707 86.6925 10.5747 86.6925 11.228V21H82.7725Z" fill="black"/>
<path d="M99.8536 4.50801C99.0509 4.50801 98.4629 4.34001 98.0896 4.00401C97.7349 3.64935 97.5576 3.17335 97.5576 2.57601V1.96002C97.5576 1.36268 97.7349 0.896015 98.0896 0.560015C98.4629 0.205348 99.0509 0.0280151 99.8536 0.0280151C100.656 0.0280151 101.235 0.205348 101.59 0.560015C101.963 0.896015 102.15 1.36268 102.15 1.96002V2.57601C102.15 3.17335 101.963 3.64935 101.59 4.00401C101.235 4.34001 100.656 4.50801 99.8536 4.50801ZM97.8936 6.30001H101.814V21H97.8936V6.30001Z" fill="black"/>
<path d="M105.222 6.30001H109.142V8.73602H109.59C109.664 8.34402 109.804 7.98001 110.01 7.64401C110.234 7.30801 110.495 7.01868 110.794 6.77601C111.092 6.51468 111.428 6.31868 111.802 6.18801C112.175 6.03868 112.558 5.96402 112.95 5.96402C114.648 5.96402 115.89 6.60801 116.674 7.89601C117.476 9.18401 117.878 11.1067 117.878 13.664C117.878 16.2213 117.486 18.144 116.702 19.432C115.918 20.7013 114.667 21.336 112.95 21.336C112.558 21.336 112.175 21.2613 111.802 21.112C111.428 20.9813 111.092 20.7947 110.794 20.552C110.495 20.2907 110.234 19.992 110.01 19.656C109.804 19.32 109.664 18.956 109.59 18.564H109.142V26.6H105.222V6.30001ZM111.382 18.144C112.11 18.144 112.688 17.92 113.118 17.472C113.566 17.0053 113.79 16.352 113.79 15.512V11.788C113.79 10.948 113.566 10.304 113.118 9.85601C112.688 9.38935 112.11 9.15602 111.382 9.15602C110.672 9.15602 110.122 9.32402 109.73 9.66002C109.338 9.97735 109.142 10.4627 109.142 11.116V16.184C109.142 16.8373 109.338 17.332 109.73 17.668C110.122 17.9853 110.672 18.144 111.382 18.144Z" fill="black"/>
<path d="M120.616 6.30001H124.536V8.73602H124.984C125.059 8.34402 125.199 7.98001 125.404 7.64401C125.628 7.30801 125.89 7.01868 126.188 6.77601C126.487 6.51468 126.823 6.31868 127.196 6.18801C127.57 6.03868 127.952 5.96402 128.344 5.96402C130.043 5.96402 131.284 6.60801 132.068 7.89601C132.871 9.18401 133.272 11.1067 133.272 13.664C133.272 16.2213 132.88 18.144 132.096 19.432C131.312 20.7013 130.062 21.336 128.344 21.336C127.952 21.336 127.57 21.2613 127.196 21.112C126.823 20.9813 126.487 20.7947 126.188 20.552C125.89 20.2907 125.628 19.992 125.404 19.656C125.199 19.32 125.059 18.956 124.984 18.564H124.536V26.6H120.616V6.30001ZM126.776 18.144C127.504 18.144 128.083 17.92 128.512 17.472C128.96 17.0053 129.184 16.352 129.184 15.512V11.788C129.184 10.948 128.96 10.304 128.512 9.85601C128.083 9.38935 127.504 9.15602 126.776 9.15602C126.067 9.15602 125.516 9.32402 125.124 9.66002C124.732 9.97735 124.536 10.4627 124.536 11.116V16.184C124.536 16.8373 124.732 17.332 125.124 17.668C125.516 17.9853 126.067 18.144 126.776 18.144Z" fill="black"/>
<path d="M141.807 21.336C139.791 21.336 138.176 20.7013 136.963 19.432C135.768 18.144 135.171 16.2213 135.171 13.664C135.171 11.0507 135.693 9.11868 136.739 7.86802C137.803 6.59868 139.361 5.96402 141.415 5.96402C143.468 5.96402 145.017 6.59868 146.063 7.86802C147.127 9.11868 147.659 11.0507 147.659 13.664V14.616H139.259V15.54C139.259 16.3613 139.511 17.024 140.015 17.528C140.519 18.0133 141.209 18.256 142.087 18.256C142.815 18.256 143.431 18.0973 143.935 17.78C144.457 17.444 144.933 16.9867 145.363 16.408L147.351 18.732C146.753 19.5347 145.988 20.1693 145.055 20.636C144.14 21.1027 143.057 21.336 141.807 21.336ZM141.415 8.90401C139.977 8.90401 139.259 9.74401 139.259 11.424V12.32H143.571V11.424C143.571 9.74401 142.852 8.90401 141.415 8.90401Z" fill="black"/>
<path d="M154.766 21C153.422 21 152.442 20.7013 151.826 20.104C151.228 19.5067 150.93 18.5547 150.93 17.248V9.35201H149.082V6.30001H149.978C150.5 6.30001 150.855 6.18801 151.042 5.96402C151.228 5.74001 151.322 5.37601 151.322 4.87201V2.32401H154.85V6.30001H157.426V9.35201H154.85V17.948H157.146V21H154.766Z" fill="black"/>
<path d="M179.005 10.808L179.229 7.53201H178.781L177.577 10.64L174.329 17.724L171.109 10.64L169.905 7.53201H169.457L169.681 10.808V21H165.929V1.45601H170.129L172.789 7.28001L174.245 11.452H174.525L175.981 7.28001L178.585 1.45601H182.757V21H179.005V10.808Z" fill="black"/>
<path d="M192.201 21.336C190.185 21.336 188.571 20.7013 187.357 19.432C186.163 18.144 185.565 16.2213 185.565 13.664C185.565 11.0507 186.088 9.11868 187.133 7.86802C188.197 6.59868 189.756 5.96402 191.809 5.96402C193.863 5.96402 195.412 6.59868 196.457 7.86802C197.521 9.11868 198.053 11.0507 198.053 13.664V14.616H189.653V15.54C189.653 16.3613 189.905 17.024 190.409 17.528C190.913 18.0133 191.604 18.256 192.481 18.256C193.209 18.256 193.825 18.0973 194.329 17.78C194.852 17.444 195.328 16.9867 195.757 16.408L197.745 18.732C197.148 19.5347 196.383 20.1693 195.449 20.636C194.535 21.1027 193.452 21.336 192.201 21.336ZM191.809 8.90401C190.372 8.90401 189.653 9.74401 189.653 11.424V12.32H193.965V11.424C193.965 9.74401 193.247 8.90401 191.809 8.90401Z" fill="black"/>
<path d="M200.624 21V6.30001H204.544V8.79202H204.992C205.104 8.40002 205.253 8.03601 205.44 7.70001C205.645 7.36401 205.879 7.06535 206.14 6.80401C206.42 6.54268 206.747 6.33735 207.12 6.18801C207.493 6.03868 207.923 5.96402 208.408 5.96402C209.36 5.96402 210.116 6.22535 210.676 6.74802C211.236 7.25202 211.647 7.98001 211.908 8.93201H212.272C212.589 7.90535 213.084 7.15868 213.756 6.69201C214.447 6.20668 215.24 5.96402 216.136 5.96402C217.387 5.96402 218.339 6.41202 218.992 7.30801C219.664 8.20402 220 9.43602 220 11.004V21H216.08V11.76C216.08 10.024 215.511 9.15602 214.372 9.15602C213.793 9.15602 213.299 9.34268 212.888 9.71601C212.477 10.0707 212.272 10.5747 212.272 11.228V21H208.352V11.76C208.352 10.024 207.783 9.15602 206.644 9.15602C206.065 9.15602 205.571 9.34268 205.16 9.71601C204.749 10.0707 204.544 10.5747 204.544 11.228V21H200.624Z" fill="black"/>
<path d="M228.641 21.336C226.588 21.336 225.029 20.7107 223.965 19.46C222.92 18.2093 222.397 16.2773 222.397 13.664C222.397 11.0507 222.92 9.11868 223.965 7.86802C225.029 6.59868 226.588 5.96402 228.641 5.96402C230.695 5.96402 232.244 6.59868 233.289 7.86802C234.353 9.11868 234.885 11.0507 234.885 13.664C234.885 16.2773 234.353 18.2093 233.289 19.46C232.244 20.7107 230.695 21.336 228.641 21.336ZM228.641 18.228C230.079 18.228 230.797 17.388 230.797 15.708V11.592C230.797 9.91201 230.079 9.07201 228.641 9.07201C227.204 9.07201 226.485 9.91201 226.485 11.592V15.708C226.485 17.388 227.204 18.228 228.641 18.228Z" fill="black"/>
</svg>
