<svg width="650" height="457" viewBox="0 0 650 457" fill="none" xmlns="http://www.w3.org/2000/svg">
<g clip-path="url(#clip0)">
<path d="M521.99 424.301C517.771 440.367 502.987 450.408 502.987 450.408C502.987 450.408 495.043 434.399 499.262 418.333C503.481 402.266 518.265 392.226 518.265 392.226C518.265 392.226 526.209 408.234 521.99 424.301Z" fill="#3F3D56"/>
<path d="M515.592 420.902C503.775 432.577 502.453 450.399 502.453 450.399C502.453 450.399 520.29 449.292 532.107 437.618C543.924 425.943 545.246 408.121 545.246 408.121C545.246 408.121 527.409 409.227 515.592 420.902Z" fill="#6C63FF"/>
<path d="M87.4265 363.525H109.681L164.521 342.065C164.521 342.065 203.466 326.169 200.287 356.371C197.108 386.573 191.544 427.108 191.544 427.108C191.544 427.108 174.059 419.16 164.521 421.544C154.984 423.929 161.342 373.062 161.342 373.062C161.342 373.062 83.4525 410.417 76.2994 405.648C69.1462 400.88 67.5566 367.498 67.5566 367.498L87.4265 363.525Z" fill="#2F2E41"/>
<path opacity="0.1" d="M87.4265 363.525H109.681L164.521 342.065C164.521 342.065 203.466 326.169 200.287 356.371C197.108 386.573 191.544 427.108 191.544 427.108C191.544 427.108 174.059 419.16 164.521 421.544C154.984 423.929 161.342 373.062 161.342 373.062C161.342 373.062 83.4525 410.417 76.2994 405.648C69.1462 400.88 67.5566 367.498 67.5566 367.498L87.4265 363.525Z" fill="black"/>
<path d="M122.49 293.833L149.422 332.528L212.211 384.984C212.211 384.984 270.23 398.496 262.282 408.033C254.335 417.571 205.852 398.496 205.852 398.496C205.852 398.496 133.526 346.04 131.142 342.066C128.757 338.092 102.529 300.737 102.529 300.737L122.49 293.833Z" fill="#A0616A"/>
<path opacity="0.1" d="M122.49 293.833L149.422 332.528L212.211 384.984C212.211 384.984 270.23 398.496 262.282 408.033C254.335 417.571 205.852 398.496 205.852 398.496C205.852 398.496 133.526 346.04 131.142 342.066C128.757 338.092 102.529 300.737 102.529 300.737L122.49 293.833Z" fill="black"/>
<path d="M106.504 262.586L123.989 296.762C123.989 296.762 120.015 313.453 113.657 315.042C107.298 316.632 80.2754 294.378 80.2754 294.378L106.504 262.586Z" fill="#D0CDE1"/>
<path opacity="0.1" d="M106.504 262.586L123.989 296.762C123.989 296.762 120.015 313.453 113.657 315.042C107.298 316.632 80.2754 294.378 80.2754 294.378L106.504 262.586Z" fill="black"/>
<path d="M319.818 345.829L324.983 367.135C325.04 367.372 325.031 367.621 324.957 367.854L301.527 441.072C301.434 441.362 301.245 441.611 300.99 441.778C300.736 441.946 300.432 442.02 300.129 441.991C299.826 441.961 299.542 441.828 299.326 441.614C299.109 441.401 298.972 441.119 298.937 440.817L295.696 412.294C295.674 412.104 295.694 411.912 295.753 411.731L317.259 345.73C317.349 345.455 317.526 345.216 317.763 345.05C318.001 344.885 318.286 344.801 318.576 344.813C318.865 344.824 319.143 344.929 319.367 345.112C319.591 345.296 319.749 345.547 319.818 345.829Z" fill="#2F2E41"/>
<path d="M317.917 347.629L322.685 365.909L302.02 432.672L297.252 412.007L317.917 347.629Z" fill="#F2F2F2"/>
<path d="M213.799 446.977C214.594 449.362 296.458 446.183 297.252 445.388C297.945 444.393 298.531 443.327 299.001 442.209C299.748 440.619 300.431 439.029 300.431 439.029L297.252 413.294L216.184 410.417C216.184 410.417 214.157 432.226 213.743 442.209C213.64 444.728 213.64 446.501 213.799 446.977Z" fill="#2F2E41"/>
<path opacity="0.1" d="M286.918 416.775L288.508 439.029H252.742V416.775H286.918Z" fill="black"/>
<path opacity="0.1" d="M240.821 423.929L241.034 423.887L240.026 433.467H220.156V423.929H240.821Z" fill="black"/>
<path opacity="0.1" d="M213.799 446.978C214.594 449.362 296.457 446.183 297.252 445.388C297.945 444.393 298.531 443.327 299.001 442.209H213.743C213.64 444.728 213.64 446.501 213.799 446.978Z" fill="black"/>
<path d="M118.424 251.459C138.177 251.459 154.189 235.446 154.189 215.693C154.189 195.94 138.177 179.927 118.424 179.927C98.671 179.927 82.6582 195.94 82.6582 215.693C82.6582 235.446 98.671 251.459 118.424 251.459Z" fill="#A0616A"/>
<path d="M116.041 247.485C116.041 247.485 104.119 268.15 101.735 279.277C99.3503 290.404 65.969 257.022 65.969 257.022L61.5977 245.498C61.5977 245.498 92.9919 230.794 90.6076 218.872C88.2232 206.951 116.041 247.485 116.041 247.485Z" fill="#A0616A"/>
<path d="M122.396 309.479L154.983 352.397L232.872 410.417C232.872 410.417 289.302 422.339 276.586 431.082C263.869 439.824 227.309 423.134 227.309 423.134C227.309 423.134 148.624 381.01 131.934 363.524C115.243 346.039 84.2461 316.632 84.2461 316.632L122.396 309.479Z" fill="#A0616A"/>
<path d="M78.6837 376.241L88.2212 391.342L145.142 373.435C157.631 369.505 171.326 370.951 182.404 377.93C192.339 384.189 198.697 394.124 184.391 408.828C155.779 438.235 136.704 422.339 136.704 422.339C136.704 422.339 40.5337 467.642 24.6379 445.388C8.74203 423.134 7.94727 412.007 7.94727 412.007C7.94727 412.007 69.1462 373.857 78.6837 376.241Z" fill="#2F2E41"/>
<path d="M197.904 428.698C197.904 428.698 223.338 445.389 193.136 453.337C162.933 461.285 140.679 450.157 140.679 450.157C140.679 450.157 114.451 450.157 114.451 436.646C114.451 423.134 123.194 421.545 123.194 421.545L150.217 425.519C150.217 425.519 182.803 416.776 197.904 428.698Z" fill="#D0CDE1"/>
<path d="M147.763 206.696C150.198 207.781 152.612 209.065 155.258 209.38C157.905 209.695 160.919 208.771 162.171 206.419C162.847 205.148 162.925 203.653 162.956 202.214C163.052 197.85 162.736 193.132 159.971 189.754C158.21 187.604 155.641 186.249 153.819 184.152C152.514 182.649 151.645 180.828 150.709 179.071C147.166 172.416 141.92 166.02 134.628 164.102C131.584 163.3 128.39 163.339 125.242 163.384L106.88 163.643C103.909 163.685 100.892 163.734 98.0471 164.594C92.137 166.381 87.8339 171.351 83.8928 176.103C80.9443 179.659 77.988 183.252 75.7752 187.307C72.6025 193.224 70.9983 199.855 71.1154 206.568C71.0908 208.29 71.313 210.006 71.7754 211.665C72.3164 213.186 72.9865 214.658 73.7786 216.065C77.222 222.828 79.2666 231.276 75.3887 237.8C82.125 235.048 88.7902 231.44 93.2338 225.678C95.2217 223.1 96.7807 220.083 99.43 218.191C102.079 216.299 106.396 216.135 108.096 218.912C108.68 220.035 108.981 221.284 108.972 222.549C109.096 224.633 109.093 226.797 109.976 228.689C110.86 230.58 112.964 232.106 114.974 231.54C118.434 230.566 118.103 225.255 120.768 222.842C122.792 221.01 125.915 221.36 128.516 220.528C131.546 219.559 133.819 216.934 135.114 214.029C136.099 211.821 136.085 206.042 137.948 204.846C140.284 203.346 145.598 205.73 147.763 206.696Z" fill="#2F2E41"/>
<path d="M58.7572 241.727C60.3662 241.298 62.0602 241.302 63.667 241.74C68.7689 243.109 80.2061 246.735 82.6583 252.253C85.8375 259.406 96.9646 270.533 96.9646 270.533C96.9646 270.533 112.066 285.634 108.886 295.966C105.707 306.299 93.7854 318.221 93.7854 318.221C93.7854 318.221 96.9646 367.498 81.0688 380.214C65.1729 392.931 58.8146 384.188 58.8146 396.11C58.8146 408.032 9.53751 445.387 0 422.338C0 422.338 4.76876 379.42 3.17917 364.318C1.61251 349.435 3.90601 256.577 58.7572 241.727Z" fill="#D0CDE1"/>
<path d="M84.247 261.791C84.247 261.791 132.729 297.557 123.987 312.658C123.987 312.658 94.5793 326.964 88.221 326.169C81.8626 325.374 57.2241 297.557 50.8658 295.172C44.5074 292.788 41.3283 249.869 84.247 261.791Z" fill="#D0CDE1"/>
<path d="M300.857 182.701C322.542 182.701 340.121 165.122 340.121 143.437C340.121 121.753 322.542 104.174 300.857 104.174C279.173 104.174 261.594 121.753 261.594 143.437C261.594 165.122 279.173 182.701 300.857 182.701Z" fill="#F2F2F2"/>
<path d="M625.153 92.4449H405.127V46.4043H625.153V92.4449ZM406.096 91.4756H624.183V47.3736H406.096V91.4756Z" fill="#3F3D56"/>
<path d="M609.16 55.6123H390.104V100.684H609.16V55.6123Z" fill="#6C63FF"/>
<path d="M251.627 12.6004C253.501 12.6004 255.019 11.0816 255.019 9.20794C255.019 7.33431 253.501 5.81543 251.627 5.81543C249.753 5.81543 248.234 7.33431 248.234 9.20794C248.234 11.0816 249.753 12.6004 251.627 12.6004Z" fill="#6C63FF"/>
<path d="M263.258 12.6004C265.131 12.6004 266.65 11.0816 266.65 9.20794C266.65 7.33431 265.131 5.81543 263.258 5.81543C261.384 5.81543 259.865 7.33431 259.865 9.20794C259.865 11.0816 261.384 12.6004 263.258 12.6004Z" fill="#6C63FF"/>
<path d="M274.889 12.6004C276.762 12.6004 278.281 11.0816 278.281 9.20794C278.281 7.33431 276.762 5.81543 274.889 5.81543C273.015 5.81543 271.496 7.33431 271.496 9.20794C271.496 11.0816 273.015 12.6004 274.889 12.6004Z" fill="#6C63FF"/>
<path d="M650.001 265.582H241.936V0H650.001V265.582ZM242.905 264.612H649.032V0.969277H242.905V264.612Z" fill="#3F3D56"/>
<path d="M649.516 14.7012H242.42V15.6704H649.516V14.7012Z" fill="#3F3D56"/>
<path d="M252.598 11.6312C251.831 11.6312 251.081 11.4038 250.444 10.9778C249.806 10.5517 249.309 9.94621 249.016 9.23776C248.722 8.52931 248.646 7.74976 248.795 6.99767C248.945 6.24559 249.314 5.55475 249.856 5.01253C250.399 4.47031 251.089 4.10105 251.841 3.95145C252.594 3.80185 253.373 3.87863 254.082 4.17208C254.79 4.46553 255.395 4.96247 255.821 5.60006C256.248 6.23765 256.475 6.98724 256.475 7.75406C256.474 8.78197 256.065 9.76743 255.338 10.4943C254.611 11.2211 253.626 11.63 252.598 11.6312ZM252.598 4.84623C252.023 4.84623 251.46 5.01677 250.982 5.33629C250.504 5.6558 250.131 6.10995 249.911 6.64129C249.691 7.17262 249.634 7.75729 249.746 8.32135C249.858 8.88541 250.135 9.40354 250.542 9.81021C250.948 10.2169 251.466 10.4938 252.031 10.606C252.595 10.7182 253.179 10.6606 253.711 10.4405C254.242 10.2205 254.696 9.84775 255.016 9.36956C255.335 8.89137 255.506 8.32917 255.506 7.75406C255.505 6.98313 255.198 6.24403 254.653 5.6989C254.108 5.15377 253.369 4.84713 252.598 4.84623V4.84623Z" fill="#3F3D56"/>
<path d="M264.227 11.6312C263.46 11.6312 262.71 11.4038 262.073 10.9778C261.435 10.5517 260.938 9.94621 260.645 9.23776C260.351 8.52931 260.275 7.74976 260.424 6.99767C260.574 6.24559 260.943 5.55475 261.485 5.01253C262.027 4.47031 262.718 4.10105 263.47 3.95145C264.222 3.80185 265.002 3.87863 265.71 4.17208C266.419 4.46553 267.024 4.96247 267.45 5.60006C267.876 6.23765 268.104 6.98724 268.104 7.75406C268.103 8.78197 267.694 9.76743 266.967 10.4943C266.24 11.2211 265.255 11.63 264.227 11.6312V11.6312ZM264.227 4.84623C263.652 4.84623 263.089 5.01677 262.611 5.33629C262.133 5.6558 261.76 6.10995 261.54 6.64129C261.32 7.17262 261.263 7.75729 261.375 8.32135C261.487 8.88541 261.764 9.40354 262.171 9.81021C262.577 10.2169 263.095 10.4938 263.659 10.606C264.223 10.7182 264.808 10.6606 265.339 10.4405C265.871 10.2205 266.325 9.84775 266.644 9.36956C266.964 8.89137 267.135 8.32917 267.135 7.75406C267.134 6.98313 266.827 6.24403 266.282 5.6989C265.737 5.15377 264.998 4.84713 264.227 4.84623V4.84623Z" fill="#3F3D56"/>
<path d="M275.86 11.6312C275.093 11.6312 274.343 11.4038 273.706 10.9778C273.068 10.5517 272.571 9.94622 272.278 9.23777C271.984 8.52932 271.907 7.74976 272.057 6.99768C272.207 6.24559 272.576 5.55476 273.118 5.01253C273.66 4.47031 274.351 4.10105 275.103 3.95145C275.855 3.80185 276.635 3.87863 277.343 4.17208C278.052 4.46553 278.657 4.96246 279.083 5.60005C279.509 6.23763 279.737 6.98723 279.737 7.75405C279.735 8.78196 279.327 9.76742 278.6 10.4943C277.873 11.2211 276.887 11.63 275.86 11.6312V11.6312ZM275.86 4.84623C275.284 4.84623 274.722 5.01677 274.244 5.33629C273.766 5.6558 273.393 6.10994 273.173 6.64128C272.953 7.17261 272.895 7.75728 273.008 8.32134C273.12 8.88541 273.397 9.40354 273.803 9.8102C274.21 10.2169 274.728 10.4938 275.292 10.606C275.856 10.7182 276.441 10.6606 276.972 10.4405C277.504 10.2205 277.958 9.84775 278.277 9.36956C278.597 8.89137 278.767 8.32917 278.767 7.75406C278.766 6.98313 278.46 6.24403 277.915 5.69891C277.37 5.15378 276.63 4.84713 275.86 4.84623V4.84623Z" fill="#3F3D56"/>
<path d="M370.715 15.1855H369.746V265.472H370.715V15.1855Z" fill="#3F3D56"/>
<path d="M487.273 138.244H416.031V147.936H487.273V138.244Z" fill="#F2F2F2"/>
<path d="M599.224 138.244H527.982V147.936H599.224V138.244Z" fill="#F2F2F2"/>
<path d="M491.637 143.574H419.426V132.912H491.637V143.574ZM420.395 142.604H490.668V133.881H420.395V142.604Z" fill="#3F3D56"/>
<path d="M487.273 213.362H416.031V223.055H487.273V213.362Z" fill="#F2F2F2"/>
<path d="M491.637 218.693H419.426V208.031H491.637V218.693ZM420.395 217.724H490.668V209.001H420.395V217.724Z" fill="#3F3D56"/>
<path d="M599.469 174.834H416.275V184.527H599.469V174.834Z" fill="#F2F2F2"/>
<path d="M603.829 181.134H419.666V170.472H603.829V181.134ZM420.635 180.164H602.859V171.441H420.635V180.164Z" fill="#3F3D56"/>
<path d="M603.588 143.574H531.377V132.912H603.588V143.574ZM532.346 142.604H602.619V133.881H532.346V142.604Z" fill="#3F3D56"/>
<path d="M307.502 172.432C299.617 172.432 291.909 170.094 285.353 165.713C278.797 161.332 273.687 155.106 270.67 147.821C267.652 140.536 266.863 132.52 268.401 124.787C269.939 117.053 273.736 109.949 279.312 104.374C284.887 98.7982 291.991 95.0011 299.725 93.4628C307.458 91.9245 315.474 92.7141 322.759 95.7315C330.044 98.749 336.27 103.859 340.651 110.415C345.032 116.971 347.37 124.679 347.37 132.564C347.358 143.134 343.154 153.268 335.68 160.742C328.206 168.216 318.072 172.42 307.502 172.432ZM307.502 93.9049C299.856 93.9049 292.382 96.1722 286.024 100.42C279.667 104.668 274.712 110.706 271.786 117.77C268.86 124.834 268.094 132.607 269.586 140.106C271.077 147.606 274.759 154.494 280.166 159.901C285.573 165.307 292.461 168.989 299.96 170.481C307.459 171.973 315.233 171.207 322.297 168.281C329.361 165.355 335.398 160.4 339.646 154.042C343.894 147.685 346.162 140.21 346.162 132.564C346.15 122.315 342.073 112.488 334.826 105.241C327.578 97.9933 317.752 93.9165 307.502 93.9049Z" fill="#3F3D56"/>
<path d="M622.818 449.692H451.871V450.901H622.818V449.692Z" fill="#3F3D56"/>
</g>
<defs>
<clipPath id="clip0">
<rect width="650" height="456.198" fill="white"/>
</clipPath>
</defs>
</svg>
