<svg width="251" height="46" viewBox="0 0 251 46" fill="none" xmlns="http://www.w3.org/2000/svg">
<path d="M4.93266 23.9673L16.629 28.6944V32.3566L1.34527 25.2752V22.5473L16.629 15.4846V19.1468L4.93266 23.9673ZM22.7762 38.3355H19.8054L31.1654 8.79566H34.1175L22.7762 38.3355ZM50.0926 23.8552L37.7423 19.016V15.466L53.6987 22.5286V25.2565L37.7423 32.3379V28.7505L50.0926 23.8552Z" fill="#F9D63E"/>
<path d="M85.3502 28.3244C85.0139 31.2018 83.9489 33.4252 82.1552 34.9947C80.3739 36.5517 78.001 37.3302 75.0364 37.3302C71.8227 37.3302 69.2443 36.178 67.3011 33.8736C65.3704 31.5692 64.4051 28.4863 64.4051 24.6249V22.0091C64.4051 19.4805 64.8535 17.2571 65.7503 15.3388C66.6596 13.4206 67.9426 11.9507 69.5993 10.9293C71.256 9.89545 73.1742 9.37851 75.3541 9.37851C78.2439 9.37851 80.5608 10.1882 82.3046 11.8075C84.0485 13.4143 85.0637 15.644 85.3502 18.4965H81.7441C81.4327 16.3291 80.7538 14.7596 79.7075 13.788C78.6737 12.8164 77.2225 12.3306 75.3541 12.3306C73.0621 12.3306 71.2622 13.1777 69.9543 14.8717C68.6589 16.5657 68.0111 18.976 68.0111 22.1025V24.737C68.0111 27.6891 68.6277 30.0371 69.8609 31.781C71.0941 33.5249 72.8192 34.3968 75.0364 34.3968C77.0294 34.3968 78.5553 33.9484 79.6141 33.0515C80.6853 32.1422 81.3953 30.5665 81.7441 28.3244H85.3502ZM111.191 24.2325C111.191 26.8982 110.742 29.2275 109.845 31.2205C108.948 33.201 107.678 34.7144 106.034 35.7607C104.389 36.8071 102.471 37.3302 100.279 37.3302C98.1365 37.3302 96.2369 36.8071 94.5802 35.7607C92.9235 34.702 91.6343 33.201 90.7126 31.2578C89.8033 29.3022 89.3362 27.0414 89.3112 24.4754V22.5136C89.3112 19.8978 89.7659 17.5872 90.6752 15.5817C91.5845 13.5763 92.8675 12.0441 94.5242 10.9854C96.1933 9.91413 98.0991 9.37851 100.242 9.37851C102.421 9.37851 104.34 9.9079 105.996 10.9667C107.665 12.013 108.948 13.5389 109.845 15.5443C110.742 17.5373 111.191 19.8604 111.191 22.5136V24.2325ZM107.622 22.4762C107.622 19.2501 106.974 16.7775 105.679 15.0585C104.383 13.3271 102.571 12.4614 100.242 12.4614C97.9745 12.4614 96.1871 13.3271 94.8792 15.0585C93.5837 16.7775 92.9173 19.1691 92.8799 22.2333V24.2325C92.8799 27.359 93.5339 29.8191 94.8418 31.6128C96.1622 33.3941 97.9745 34.2847 100.279 34.2847C102.596 34.2847 104.389 33.4439 105.66 31.7623C106.931 30.0683 107.584 27.6455 107.622 24.4941V22.4762ZM116.572 36.9565V9.7522H124.251C126.618 9.7522 128.71 10.2754 130.529 11.3217C132.347 12.368 133.749 13.8565 134.733 15.7872C135.729 17.7179 136.234 19.9351 136.246 22.4388V24.1765C136.246 26.7425 135.748 28.9908 134.751 30.9215C133.767 32.8522 132.354 34.3345 130.51 35.3684C128.679 36.4022 126.543 36.9316 124.101 36.9565H116.572ZM120.159 12.7043V34.0231H123.933C126.699 34.0231 128.847 33.1636 130.379 31.4447C131.924 29.7257 132.696 27.2781 132.696 24.1017V22.5136C132.696 19.4244 131.968 17.0266 130.51 15.3201C129.065 13.6012 127.01 12.7292 124.344 12.7043H120.159ZM157.061 24.382H145.271V34.0231H158.966V36.9565H141.683V9.7522H158.779V12.7043H145.271V21.4486H157.061V24.382ZM172.438 32.192L180.21 9.7522H184.134L174.045 36.9565H170.868L160.797 9.7522H164.702L172.438 32.192ZM191.645 36.9565H188.058V9.7522H191.645V36.9565ZM213.599 24.382H201.809V34.0231H215.505V36.9565H198.222V9.7522H215.318V12.7043H201.809V21.4486H213.599V24.382ZM225.837 28.3804L226.361 31.9678L227.127 28.7355L232.508 9.7522H235.535L240.785 28.7355L241.532 32.0239L242.111 28.3618L246.334 9.7522H249.94L243.345 36.9565H240.075L234.47 17.1325L234.04 15.0585L233.61 17.1325L227.799 36.9565H224.53L217.953 9.7522H221.54L225.837 28.3804Z" fill="#1F1F1F"/>
</svg>
