<svg width="100" height="100" viewBox="0 0 100 100" fill="none" xmlns="http://www.w3.org/2000/svg">
<g clip-path="url(#clip0)">
<path d="M81.67 33.9326C80.8608 33.9326 80.2052 34.5885 80.2052 35.3975V96.4068C80.2052 96.7731 79.9073 97.0707 79.5413 97.0707H22.2835C21.9175 97.0707 21.6196 96.7729 21.6196 96.4068V79.9914C21.6196 79.1824 20.9638 78.5266 20.1548 78.5266C19.3458 78.5266 18.6899 79.1824 18.6899 79.9914V96.4068C18.6899 98.3885 20.302 100 22.2835 100H79.5413C81.5229 100 83.1349 98.3883 83.1349 96.4068V35.3975C83.1349 34.5883 82.4792 33.9326 81.67 33.9326Z" fill="#1F1F1F"/>
<path d="M79.5413 13.0786H68.9101C68.9579 12.7411 68.9841 12.397 68.9841 12.0464C68.9841 8.00342 65.6948 4.71436 61.6521 4.71436C57.6093 4.71436 54.3202 8.00342 54.3202 12.0464C54.3202 12.3968 54.3466 12.7411 54.3942 13.0786H38.4153C38.0296 13.0815 37.6526 13.2349 37.3796 13.5077L19.1188 31.7685C18.847 32.0417 18.6909 32.4188 18.6899 32.8042V72.7595C18.6899 73.5685 19.3458 74.2243 20.1548 74.2243C20.9638 74.2243 21.6196 73.5685 21.6196 72.7595V34.269H36.2866C38.2683 34.269 39.8802 32.6569 39.8802 30.6755V16.0083H55.4876C56.7938 18.0337 59.0681 19.3784 61.6521 19.3784C64.236 19.3784 66.5104 18.0335 67.8167 16.0083H79.5413C79.9073 16.0083 80.2052 16.3062 80.2052 16.6722V28.1653C80.2052 28.9743 80.8608 29.6302 81.67 29.6302C82.4792 29.6302 83.1349 28.9743 83.1349 28.1653V16.6722C83.1349 14.6907 81.5228 13.0786 79.5413 13.0786ZM36.2866 31.3394H23.6913L36.9507 18.08V30.6755C36.9505 31.0415 36.6528 31.3394 36.2866 31.3394ZM61.6521 16.4487C59.2247 16.4487 57.2499 14.4739 57.2499 12.0464C57.2499 9.61885 59.2247 7.64404 61.6521 7.64404C64.0796 7.64404 66.0544 9.61885 66.0544 12.0464C66.0544 14.4739 64.0796 16.4487 61.6521 16.4487Z" fill="#1F1F1F"/>
<path d="M46.0772 69.5895C46.5987 70.208 47.5229 70.2867 48.1413 69.7648C48.7989 69.2102 49.7329 68.8928 50.7057 68.8928H50.7192C51.6969 68.8957 52.6348 69.2191 53.292 69.7803C53.568 70.0158 53.9061 70.1309 54.2422 70.1309C54.6561 70.1309 55.0674 69.9564 55.3571 69.617C55.8823 69.0018 55.8092 68.0771 55.194 67.5518C53.9997 66.5322 52.4135 65.968 50.728 65.9629C50.7204 65.9629 50.7128 65.9629 50.7049 65.9629C49.0282 65.9629 47.4477 66.5172 46.2526 67.525C45.6342 68.0469 45.5557 68.9709 46.0772 69.5895V69.5895Z" fill="#1F1F1F"/>
<path d="M58.7348 63.4647C58.7657 63.4681 58.7971 63.4687 58.8286 63.47C58.8469 63.4708 58.8651 63.4729 58.8836 63.4731H58.8918C59.6971 63.4731 60.3522 62.8226 60.3565 62.0163C60.3604 61.3054 59.8571 60.7103 59.1858 60.5733C59.1809 60.5724 59.1758 60.572 59.1708 60.571C59.1286 60.5628 59.0858 60.5558 59.0424 60.5515C59.0249 60.5497 59.0069 60.5497 58.9891 60.5485C58.9594 60.5466 58.9297 60.5437 58.8997 60.5435H58.8823C58.8795 60.5435 58.877 60.5435 58.8741 60.5435C58.8237 60.5435 58.7739 60.546 58.7247 60.5511C57.986 60.6253 57.4163 61.2493 57.4163 62.0085C57.4163 62.7593 57.9887 63.3772 58.7176 63.4624C58.7235 63.4628 58.7291 63.4642 58.7348 63.4647Z" fill="#1F1F1F"/>
<path d="M42.9335 60.5435C42.1245 60.5435 41.4771 61.1993 41.4771 62.0083C41.4771 62.8173 42.1415 63.4731 42.9505 63.4731C43.7595 63.4731 44.4153 62.8173 44.4153 62.0083C44.4153 61.1993 43.7595 60.5435 42.9505 60.5435H42.9335Z" fill="#1F1F1F"/>
<path d="M36.7715 52.1899C34.1405 55.4227 32.6917 59.5028 32.6917 63.6781C32.6917 73.725 40.8655 81.8988 50.9125 81.8988C60.9596 81.8988 69.1333 73.725 69.1333 63.6781C69.1333 59.5018 67.6838 55.4213 65.052 52.1881C62.4588 49.0024 58.8325 46.7645 54.8413 45.8867C54.0504 45.7123 53.2698 46.2127 53.0958 47.0028C52.9219 47.7928 53.4217 48.5742 54.2118 48.7481C57.5598 49.4844 60.6028 51.3629 62.7799 54.0377C64.9877 56.7498 66.2036 60.1737 66.2036 63.6781C66.2036 72.1096 59.344 78.9692 50.9125 78.9692C42.4811 78.9692 35.6213 72.1096 35.6213 63.6781C35.6213 60.1742 36.8368 56.751 39.0438 54.0391C41.2204 51.3647 44.2624 49.4858 47.6094 48.7488C48.3995 48.5748 48.8991 47.7934 48.725 47.0031C48.551 46.2131 47.7696 45.7141 46.9793 45.8875C42.9891 46.7664 39.3639 49.0045 36.7715 52.1899Z" fill="#1F1F1F"/>
<path d="M50.9067 40.53C51.7136 40.53 52.3688 39.877 52.3714 39.0694L52.3856 34.3202C52.3882 33.5112 51.7343 32.8534 50.9251 32.8511C50.9235 32.8511 50.9221 32.8511 50.9206 32.8511C50.1137 32.8511 49.4585 33.504 49.4559 34.3116L49.4417 39.0608C49.4393 39.8698 50.093 40.5276 50.9022 40.53H50.9067Z" fill="#1F1F1F"/>
<path d="M43.8252 42.5544C44.0813 42.5544 44.3409 42.4873 44.5764 42.346C45.2706 41.9304 45.4961 41.0308 45.0805 40.3367L42.6129 36.2169C42.1973 35.5228 41.2977 35.297 40.6036 35.7128C39.9094 36.1285 39.6838 37.0281 40.0995 37.7222L42.567 41.8419C42.8417 42.3003 43.3272 42.5544 43.8252 42.5544V42.5544Z" fill="#1F1F1F"/>
<path d="M57.9753 42.6195C58.4702 42.6195 58.9532 42.3685 59.2288 41.9146L61.7212 37.8085C62.1409 37.1169 61.9206 36.2159 61.229 35.7962C60.5372 35.3767 59.6366 35.5968 59.2167 36.2884L56.7243 40.3945C56.3046 41.0861 56.5249 41.987 57.2165 42.4068C57.4542 42.5509 57.7163 42.6195 57.9753 42.6195Z" fill="#1F1F1F"/>
<path d="M22.1808 13.4144C22.4667 13.7005 22.8417 13.8435 23.2165 13.8435C23.5913 13.8435 23.9663 13.7005 24.2522 13.4144L25.4855 12.1812L26.7187 13.4144C27.0046 13.7003 27.3796 13.8435 27.7544 13.8435C28.1292 13.8435 28.5042 13.7005 28.7902 13.4144C29.3622 12.8423 29.3622 11.9148 28.7902 11.3429L27.5569 10.1097L28.7902 8.87651C29.3622 8.30444 29.3622 7.3769 28.7902 6.80503C28.2181 6.23296 27.2905 6.23296 26.7187 6.80503L25.4855 8.03823L24.2522 6.80503C23.6802 6.23296 22.7526 6.23296 22.1808 6.80503C21.6087 7.3771 21.6087 8.30464 22.1808 8.87651L23.414 10.1097L22.1808 11.3429C21.6087 11.9148 21.6087 12.8423 22.1808 13.4144Z" fill="#1F1F1F"/>
<path d="M46.6709 6.45522C46.9568 6.74136 47.3318 6.88433 47.7066 6.88433C48.0814 6.88433 48.4564 6.74136 48.7423 6.45522L49.6839 5.51382L50.6253 6.45522C50.9115 6.74116 51.2865 6.88433 51.6613 6.88433C52.0361 6.88433 52.4111 6.74136 52.6972 6.45522C53.2693 5.88315 53.2693 4.95562 52.6972 4.38374L51.7556 3.44214L52.6972 2.50054C53.2693 1.92847 53.2693 1.00093 52.6972 0.429053C52.1249 -0.143018 51.1976 -0.143018 50.6255 0.429053L49.6841 1.37046L48.7425 0.429053C48.1705 -0.143018 47.2429 -0.143018 46.6711 0.429053C46.099 1.00112 46.099 1.92866 46.6711 2.50054L47.6127 3.44214L46.6711 4.38374C46.0986 4.95562 46.0986 5.88315 46.6709 6.45522Z" fill="#1F1F1F"/>
<path d="M22.6872 21.7773C22.6872 18.6439 20.138 16.0947 17.0046 16.0947C13.8712 16.0947 11.322 18.6439 11.322 21.7773C11.322 24.9107 13.8712 27.4599 17.0046 27.4599C20.138 27.4599 22.6872 24.9107 22.6872 21.7773ZM17.0046 24.5303C15.4867 24.5303 14.2517 23.2953 14.2517 21.7773C14.2517 20.2594 15.4867 19.0244 17.0046 19.0244C18.5226 19.0244 19.7576 20.2594 19.7576 21.7773C19.7576 23.2953 18.5226 24.5303 17.0046 24.5303Z" fill="#1F1F1F"/>
<path d="M87.3078 6.17895L88.2494 5.23735C88.8215 4.66528 88.8215 3.73774 88.2494 3.16587C87.6772 2.5938 86.7498 2.5938 86.1777 3.16587L85.2363 4.10728L84.2949 3.16587C83.7227 2.5938 82.7953 2.5938 82.2232 3.16587C81.6512 3.73794 81.6512 4.66548 82.2232 5.23735L83.1648 6.17895L82.2232 7.12056C81.6512 7.69263 81.6512 8.62017 82.2232 9.19204C82.5094 9.47798 82.8844 9.62114 83.2592 9.62114C83.634 9.62114 84.009 9.47817 84.2951 9.19204L85.2365 8.25063L86.1779 9.19204C86.4641 9.47798 86.8391 9.62114 87.2139 9.62114C87.5887 9.62114 87.9637 9.47817 88.2498 9.19204C88.8219 8.61997 88.8219 7.69243 88.2498 7.12056L87.3078 6.17895Z" fill="#1F1F1F"/>
</g>
<defs>
<clipPath id="clip0">
<rect width="100" height="100" fill="white"/>
</clipPath>
</defs>
</svg>
