<svg width="100" height="86" viewBox="0 0 100 86" fill="none" xmlns="http://www.w3.org/2000/svg">
<rect x="0.000244141" width="100" height="85.5362" rx="3.74065" fill="#122738"/>
<path d="M0 22.4438H100V81.7955C100 83.8614 98.3253 85.5361 96.2594 85.5361H3.74065C1.67474 85.5361 0 83.8614 0 81.7955V22.4438Z" fill="#193549"/>
<rect y="18.8279" width="100" height="3.61596" fill="#173043"/>
<circle cx="12.2194" cy="9.47673" r="3.74065" fill="#E15B66"/>
<circle cx="23.0673" cy="9.47649" r="3.74065" fill="#E7AE23"/>
<circle cx="33.9152" cy="9.47649" r="3.74065" fill="#6AC554"/>
<path d="M28.6939 48.1418L39.6703 52.5779V56.0147L25.3273 49.3692V46.8091L39.6703 40.1812V43.6179L28.6939 48.1418ZM45.4391 61.6256H42.6512L53.312 33.9039H56.0824L45.4391 61.6256ZM71.0743 48.0365L59.4841 43.4952V40.1637L74.4584 46.7916V49.3516L59.4841 55.9971V52.6305L71.0743 48.0365Z" fill="#F9D63E"/>
</svg>
